# AST/ASF file generated using VICON BodyLanguage
# -----------------------------------------------
:version 1.10
:name VICON
:units
  mass 1.0
  length 0.45
  angle deg
:documentation
   .ast/.asf automatically generated from VICON data using
   VICON BodyBuilder and BodyLanguage model FoxedUp or BRILLIANT.MOD
:root
   order TX TY TZ RX RY RZ
   axis XYZ
   position 0 0 0  
   orientation 0 0 0 
:bonedata
  begin
     id 1 
     name lhipjoint
     direction 0.62366 -0.717238 0.310833 
     length 2.53602 
     axis 0 0 0  XYZ
  end
  begin
     id 2 
     name lfemur
     direction 0.34202 -0.939693 0  
     length 7.40817  
     axis 0 0 20  XYZ
    dof rx ry rz
    limits (-160.0 20.0)
           (-70.0 70.0)
           (-60.0 70.0)
  end
  begin
     id 3 
     name ltibia
     direction 0.34202 -0.939693 0   
     length 7.7045   
     axis 0 0 20   XYZ
    dof rx
    limits (-10.0 170.0)
  end
  begin
     id 4 
     name lfoot
     direction 0.0673888 -0.185149 0.980397   
     length 2.09456   
     axis -90 7.62852e-016 20   XYZ
    dof rx rz
    limits (-45.0 90.0)
           (-70.0 20.0)
  end
  begin
     id 5 
     name ltoes
     direction 1.53575e-011 -4.21994e-011 1   
     length 1.05543   
     axis -90 7.62852e-016 20   XYZ
    dof rx
    limits (-90.0 20.0)
  end
  begin
     id 6 
     name rhipjoint
     direction -0.489018 -0.800347 0.346851   
     length 2.27268  
     axis 0 0 0  XYZ 
  end
  begin
     id 7 
     name rfemur
     direction -0.34202 -0.939693 0   
     length 7.55487   
     axis 0 0 -20   XYZ
    dof rx ry rz
    limits (-160.0 20.0)
           (-70.0 70.0)
           (-70.0 60.0)
  end
  begin
     id 8 
     name rtibia
     direction -0.34202 -0.939693 0   
     length 7.78969   
     axis 0 0 -20   XYZ
    dof rx
    limits (-10.0 170.0)
 end
 begin
     id 9 
     name rfoot
     direction -0.0859318 -0.236096 0.967923   
     length 2.19143  
     axis -90 -7.62852e-016 -20   XYZ
    dof rx rz
    limits (-45.0 90.0)
           (-20.0 70.0)
  end
  begin
     id 10 
     name rtoes
     direction -1.53538e-011 -4.21989e-011 1   
     length 1.09845   
     axis -90 -7.62852e-016 -20   XYZ
    dof rx
    limits (-90.0 20.0)
  end
  begin
     id 11 
     name lowerback
     direction -0.00762546 0.998978 -0.0445553   
     length 1.98161   
     axis 0 0 0   XYZ
    dof rx ry rz
    limits (-20.0 45.0)
           (-30.0 30.0)
           (-30.0 30.0)
  end
  begin
     id 12 
     name upperback
     direction 0.0422361 0.998867 -0.0219156   
     length 1.97558   
     axis 0 0 0   XYZ
    dof rx ry rz
    limits (-20.0 45.0)
           (-30.0 30.0)
           (-30.0 30.0)
  end
  begin
     id 13 
     name thorax
     direction 0.0442465 0.999021 7.47603e-005   
     length 1.97799   
     axis 0 0 0   XYZ
    dof rx ry rz
    limits (-20.0 45.0)
           (-30.0 30.0)
           (-30.0 30.0)
  end
  begin
     id 14 
     name lowerneck
     direction 0.00312169 0.984641 0.174564   
     length 1.78995   
     axis 0 0 0   XYZ
    dof rx ry rz
    limits (-20.0 45.0)
           (-30.0 30.0)
           (-30.0 30.0)
  end
  begin
     id 15 
     name upperneck
     direction -0.0383028 0.985255 -0.166749   
     length 1.83053   
     axis 0 0 0   XYZ
    dof rx ry rz
    limits (-20.0 45.0)
           (-30.0 30.0)
           (-30.0 30.0)
  end
  begin
     id 16
     name head
     direction -0.0129546 0.997059 -0.0755386  
     length 1.84088  
     axis 0 0 0   XYZ
    dof rx ry rz
    limits (-20.0 45.0)
           (-30.0 30.0)
           (-30.0 30.0)
  end
  begin
     id 17 
     name lclavicle
     direction 0.912857 0.370519 -0.171488  
     length 3.51279  
     axis 0 0 0   XYZ
    dof ry rz
    limits (-20.0 10.0)
           (0.0 20.0)
  end
  begin
     id 18 
     name lhumerus
     direction 1 -4.48962e-011 3.64361e-027   
     length 4.95663   
     axis 180 -30 -90   XYZ
    dof rx ry rz
    limits (-60.0 90.0)
           (-90.0 90.0)
           (-90.0 90.0)
  end
  begin
     id 19
     name lradius
     direction 1 -4.48974e-011 5.97202e-027   
     length 3.38177   
     axis 180 -30 -90   XYZ
    dof rx
    limits (-10.0 170.0)
  end
  begin
     id 20
     name lwrist
     direction 1 -4.4896e-011 9.83288e-027   
     length 1.69088   
     axis -9.31221e-015 90 90   XYZ
    dof ry
    limits (-180.0 0.0)
 end
  begin
     id 21 
     name lhand
     direction 1 -4.4902e-011 1.96551e-026   
     length 0.662909   
     axis -1.25475e-014 90 90   XYZ
    dof rx rz
    limits (-90.0 90.0)
           (-45.0 45.0)
  end
  begin
     id 22 
     name lfingers
     direction 1 -4.48971e-011 3.93277e-026   
     length 0.534454   
     axis -2.50945e-014 90 90   XYZ
    dof rx
    limits (0.0 90.0)
  end
  begin
     id 23
     name lthumb
     direction 0.707107 -6.34933e-011 0.707107   
     length 0.767373   
     axis -90 45 -4.80359e-014   XYZ
    dof rx rz
    limits (-45.0 45.0)
           (-45.0 45.0)
  end
  begin
     id 24 
     name rclavicle
     direction -0.900919 0.395364 -0.178976   
     length 3.40627  
     axis 0 0 0   XYZ 
    dof ry rz
    limits (-10.0 20.0)
           (-20.0 0.0)
  end
  begin
     id 25 
     name rhumerus
     direction -1 -4.48969e-011 1.03875e-027  
     length 5.08365   
     axis 180 30 90   XYZ
    dof rx ry rz
    limits (-90.0 60.0)
           (-90.0 90.0)
           (-90.0 90.0)
  end
  begin
     id 26 
     name rradius
     direction -1 -4.48951e-011 5.02733e-027   
     length 3.35984   
     axis 180 30 90   XYZ
    dof rx
    limits (-10.0 170.0)
  end
  begin
     id 27 
     name rwrist
     direction -1 -4.49011e-011 9.82828e-027   
     length 1.67992   
     axis -9.31221e-015 -90 -90   XYZ
    dof ry
    limits (-180.0 0.0)
  end
  begin
     id 28
     name rhand
     direction -1 -4.48894e-011 1.96774e-026   
     length 0.820764   
     axis -1.25475e-014 -90 -90   XYZ
    dof rx rz
    limits (-90.0 90.0)
           (-45.0 45.0)
  end
  begin
     id 29
     name rfingers
     direction -1 -4.49095e-011 3.92833e-026   
     length 0.661721   
     axis -2.50945e-014 -90 -90   XYZ
    dof rx
    limits (0.0 90.0)
  end
  begin
     id 30
     name rthumb
     direction -0.707107 -6.34881e-011 0.707107   
     length 0.950103   
     axis -90 -45 4.80359e-014   XYZ
    dof rx rz
    limits (-45.0 45.0)
           (-45.0 45.0)
  end
:hierarchy
  begin
    root lhipjoint rhipjoint lowerback
    lhipjoint lfemur
    lfemur ltibia
    ltibia lfoot
    lfoot ltoes
    rhipjoint rfemur
    rfemur rtibia
    rtibia rfoot
    rfoot rtoes
    lowerback upperback
    upperback thorax
    thorax lowerneck lclavicle rclavicle
    lowerneck upperneck
    upperneck head
    lclavicle lhumerus
    lhumerus lradius
    lradius lwrist
    lwrist lhand lthumb
    lhand lfingers
    rclavicle rhumerus
    rhumerus rradius
    rradius rwrist
    rwrist rhand rthumb
    rhand rfingers
  end

#!OML:ASF I:\golf\golf\golf 2\Subject 1\2002-09-07\Subject1.ASF
:FULLY-SPECIFIED
:DEGREES
80
root -0.188704 18.0766 -5.81981 9.76396 4.52584 -2.67607
lowerback 1.93706 1.54531 -4.50299
upperback 3.04832 2.02305 0.98126
thorax 1.86228 0.908208 3.5258
lowerneck -14.3461 2.88888 4.86402
upperneck 42.354 7.31176 -9.43083
head 19.3125 2.50783 -4.02313
rclavicle -4.87022e-015 -1.35174e-014
rhumerus -36.9947 34.0606 -96.9147
rradius 91.8085
rwrist -19.0938
rhand -9.24467 21.264
rfingers 7.12502
rthumb 16.7109 -8.03675
lclavicle -4.87022e-015 -1.35174e-014
lhumerus -35.2925 -36.2748 99.3532
lradius 83.8049
lwrist 15.0288
lhand -7.67032 31.6463
lfingers 7.12502
lthumb 18.226 60.8124
rfemur -32.5374 -4.47627 22.2717
rtibia 50.5992
rfoot -6.86866 -7.51502
rtoes 1.45673
lfemur -15.9115 5.04518 -20.1801
ltibia 24.5132
lfoot -15.157 -1.34093
ltoes -1.66011
81
root -0.180548 18.0763 -5.81168 9.75801 4.69739 -2.81521
lowerback 2.20093 1.5142 -4.38893
upperback 3.05662 1.96947 1.03858
thorax 1.72919 0.886328 3.51393
lowerneck -14.2464 2.86526 4.89532
upperneck 42.2695 7.28619 -9.50303
head 19.2321 2.4962 -4.06384
rclavicle 3.06128e-014 9.93923e-015
rhumerus -36.9383 34.1354 -96.8739
rradius 91.7873
rwrist -18.9032
rhand -9.43306 21.364
rfingers 7.12502
rthumb 16.5295 -7.95192
lclavicle 3.06128e-014 9.93923e-015
lhumerus -35.3335 -36.3662 99.3271
lradius 83.846
lwrist 15.0327
lhand -7.53183 31.7317
lfingers 7.12502
lthumb 18.3593 60.8853
rfemur -32.8483 -4.76189 22.4914
rtibia 50.6601
rfoot -7.03744 -7.66079
rtoes 1.23684
lfemur -15.9273 5.10414 -20.035
ltibia 24.5271
lfoot -15.3207 -1.51408
ltoes -2.0404
82
root -0.172094 18.0764 -5.80112 9.80628 4.83797 -2.99094
lowerback 2.2909 1.49102 -4.21738
upperback 3.10321 1.93631 1.08209
thorax 1.7333 0.871804 3.46116
lowerneck -14.2912 2.84806 4.82322
upperneck 42.3506 7.2313 -9.36682
head 19.2751 2.47849 -3.99864
rclavicle 3.8266e-014 1.25234e-014
rhumerus -36.7676 34.2127 -96.8221
rradius 91.672
rwrist -18.6456
rhand -9.76152 21.5189
rfingers 7.12502
rthumb 16.2133 -7.82314
lclavicle 3.8266e-014 1.25234e-014
lhumerus -35.2216 -36.5621 99.1838
lradius 83.8514
lwrist 15.2189
lhand -7.62266 31.5406
lfingers 7.12502
lthumb 18.2719 60.7024
rfemur -33.1593 -4.99049 22.7541
rtibia 50.5951
rfoot -7.20294 -7.83925
rtoes 1.28567
lfemur -15.9937 5.2001 -19.8634
ltibia 24.535
lfoot -15.405 -1.71817
ltoes -1.94608
83
root -0.163303 18.0784 -5.78813 9.88688 4.88545 -2.97879
lowerback 2.33412 1.47716 -4.21801
upperback 3.14652 1.91699 1.0548
thorax 1.75645 0.861108 3.43314
lowerneck -14.2968 2.85102 4.75992
upperneck 42.4057 7.21352 -9.25372
head 19.2976 2.47477 -3.93731
rclavicle 3.51849e-014 3.77691e-015
rhumerus -36.6116 34.2334 -96.7925
rradius 91.6053
rwrist -18.4717
rhand -9.96855 21.6493
rfingers 7.12502
rthumb 16.0139 -7.70885
lclavicle 3.51849e-014 3.77691e-015
lhumerus -35.038 -36.633 99.028
lradius 83.7167
lwrist 15.224
lhand -7.24319 31.9021
lfingers 7.12502
lthumb 18.6369 61.0293
rfemur -33.4576 -5.1449 22.7878
rtibia 50.4196
rfoot -7.47378 -7.98441
rtoes 2.30209
lfemur -16.0579 5.28767 -19.9146
ltibia 24.547
lfoot -15.4073 -1.85099
ltoes -1.65094
84
root -0.15463 18.082 -5.77247 9.92788 4.91436 -2.94284
lowerback 2.5357 1.46892 -4.21051
upperback 3.12293 1.8974 1.00095
thorax 1.62275 0.855629 3.36753
lowerneck -14.2338 2.88486 4.78357
upperneck 42.454 7.24659 -9.20906
head 19.3132 2.49881 -3.91623
rclavicle 2.18663e-015 1.03368e-014
rhumerus -36.678 34.2028 -96.9265
rradius 91.5859
rwrist -18.2454
rhand -10.2183 21.6974
rfingers 7.12502
rthumb 15.7734 -7.67989
lclavicle 2.18663e-015 1.03368e-014
lhumerus -35.0832 -36.5977 99.0059
lradius 83.6463
lwrist 14.9983
lhand -6.69211 32.7189
lfingers 7.12502
lthumb 19.1669 61.7945
rfemur -33.6902 -5.28123 22.7846
rtibia 50.133
rfoot -7.7738 -8.11073
rtoes 2.93742
lfemur -16.0482 5.34144 -19.9877
ltibia 24.5352
lfoot -15.288 -1.91567
ltoes -1.62413
85
root -0.146911 18.0839 -5.75652 9.97116 5.02921 -2.98355
lowerback 2.87594 1.41212 -4.12563
upperback 3.02938 1.80669 0.98321
thorax 1.34639 0.820111 3.29249
lowerneck -14.2408 2.93506 4.76334
upperneck 42.6381 7.29407 -9.07331
head 19.4313 2.53074 -3.84832
rclavicle -1.8487e-014 1.90833e-014
rhumerus -36.8312 34.2939 -97.1591
rradius 91.5336
rwrist -18.0025
rhand -10.3747 21.585
rfingers 7.12502
rthumb 15.6228 -7.80415
lclavicle -1.8487e-014 1.90833e-014
lhumerus -35.1667 -36.6266 98.9992
lradius 83.6255
lwrist 14.9855
lhand -6.8752 33.1191
lfingers 7.12502
lthumb 18.9908 62.212
rfemur -33.9108 -5.5109 22.8911
rtibia 49.7403
rfoot -7.93951 -8.23292
rtoes 2.6954
lfemur -16.0443 5.30031 -19.9572
ltibia 24.5006
lfoot -15.1135 -1.96657
ltoes -1.12205
86
root -0.140948 18.0811 -5.74257 10.1009 5.12361 -2.99032
lowerback 2.74916 1.3894 -4.20678
upperback 3.16081 1.78238 1.04638
thorax 1.55135 0.798778 3.4094
lowerneck -14.4017 2.90828 4.63378
upperneck 42.7047 7.26429 -8.99358
head 19.5051 2.50362 -3.79446
rclavicle 9.64106e-015 9.93923e-015
rhumerus -36.4736 34.3445 -96.9232
rradius 91.4495
rwrist -17.9043
rhand -10.1806 21.5101
rfingers 7.12502
rthumb 15.8097 -7.86431
lclavicle 9.64106e-015 9.93923e-015
lhumerus -34.8345 -36.6443 98.8462
lradius 83.5731
lwrist 15.0334
lhand -7.09561 33.1051
lfingers 7.12502
lthumb 18.7789 62.2186
rfemur -34.217 -5.79654 23.0104
rtibia 49.2426
rfoot -7.98701 -8.34964
rtoes 2.80516
lfemur -16.1383 5.20455 -19.9561
ltibia 24.4831
lfoot -15.0624 -1.98636
ltoes 0.151818
87
root -0.135873 18.0796 -5.72402 10.2602 5.05984 -3.04119
lowerback 2.55489 1.46635 -4.26293
upperback 3.2648 1.89397 1.08432
thorax 1.75494 0.8463 3.48524
lowerneck -14.4584 2.82347 4.63684
upperneck 42.6727 7.13455 -9.02006
head 19.4844 2.44922 -3.83198
rclavicle 2.5842e-015 1.82882e-014
rhumerus -36.2046 34.1878 -96.7057
rradius 91.4128
rwrist -17.7427
rhand -10.1198 21.4613
rfingers 7.12502
rthumb 15.8683 -7.90853
lclavicle 2.5842e-015 1.82882e-014
lhumerus -34.5559 -36.791 98.7088
lradius 83.4645
lwrist 14.9314
lhand -7.93684 33.8146
lfingers 7.12502
lthumb 17.9696 63.0045
rfemur -34.515 -5.9829 23.2102
rtibia 48.6531
rfoot -8.16872 -8.45881
rtoes 3.11132
lfemur -16.2349 5.22348 -19.924
ltibia 24.4764
lfoot -15.1623 -1.89494
ltoes 0.0985833
88
root -0.131422 18.0838 -5.69962 10.3038 4.8649 -3.19821
lowerback 2.6856 1.58198 -4.12108
upperback 3.21869 2.0435 1.04064
thorax 1.62598 0.928223 3.35308
lowerneck -14.2555 2.75927 4.86662
upperneck 42.5763 6.99367 -9.13302
head 19.3616 2.42261 -3.95307
rclavicle 6.16232e-015 1.39149e-014
rhumerus -36.3517 33.9739 -96.8489
rradius 91.4467
rwrist -17.5768
rhand -10.2079 21.2879
rfingers 7.12502
rthumb 15.7835 -8.08861
lclavicle 6.16232e-015 1.39149e-014
lhumerus -34.6533 -36.9184 98.6255
lradius 83.39
lwrist 14.7401
lhand -9.52131 35.3456
lfingers 7.12502
lthumb 16.4446 64.6686
rfemur -34.6283 -6.02479 23.4867
rtibia 47.9733
rfoot -8.39755 -8.51455
rtoes 2.1994
lfemur -16.1631 5.40357 -19.7863
ltibia 24.4204
lfoot -15.2811 -1.71212
ltoes -0.754671
89
root -0.128477 18.0871 -5.67422 10.2622 4.60433 -3.29365
lowerback 2.76126 1.71968 -4.18396
upperback 3.2694 2.22309 1.07139
thorax 1.617 1.0157 3.41528
lowerneck -14.0717 2.69659 4.92398
upperneck 42.475 6.89691 -9.20117
head 19.2357 2.39008 -4.00898
rclavicle -4.17448e-015 -2.62396e-014
rhumerus -36.3857 33.846 -96.7822
rradius 91.4954
rwrist -17.5585
rhand -10.1665 21.2553
rfingers 7.12502
rthumb 15.8233 -8.11802
lclavicle -4.17448e-015 -2.62396e-014
lhumerus -34.7642 -36.9025 98.6856
lradius 83.4325
lwrist 14.5737
lhand -9.60354 35.3512
lfingers 7.12502
lthumb 16.3654 64.6807
rfemur -34.6301 -6.00571 23.6503
rtibia 47.2111
rfoot -8.50276 -8.49708
rtoes 1.21837
lfemur -15.9324 5.66859 -19.713
ltibia 24.2797
lfoot -15.3288 -1.65021
ltoes -0.428732
90
root -0.125897 18.0906 -5.64929 10.2538 4.4133 -3.31304
lowerback 2.78267 1.81992 -4.33624
upperback 3.3421 2.35418 1.11578
thorax 1.66142 1.07527 3.54483
lowerneck -13.9753 2.67381 4.84831
upperneck 42.4547 6.86069 -9.14026
head 19.1808 2.37377 -3.96889
rclavicle -1.56046e-014 2.18663e-015
rhumerus -36.3335 33.7997 -96.679
rradius 91.5063
rwrist -17.6418
rhand -10.2563 21.3906
rfingers 7.12502
rthumb 15.7368 -7.98958
lclavicle -1.56046e-014 2.18663e-015
lhumerus -34.651 -37.1025 98.7259
lradius 83.3964
lwrist 14.6001
lhand -9.07725 34.9162
lfingers 7.12502
lthumb 16.8721 64.2032
rfemur -34.659 -6.0034 23.7279
rtibia 46.3766
rfoot -8.60103 -8.47728
rtoes 1.72753
lfemur -15.7087 5.85373 -19.7074
ltibia 24.0938
lfoot -15.3411 -1.75999
ltoes 0.297967
91
root -0.12232 18.0967 -5.62682 10.3054 4.35725 -3.26608
lowerback 2.82052 1.83845 -4.48748
upperback 3.40967 2.37596 1.13732
thorax 1.70204 1.08049 3.65183
lowerneck -13.9619 2.68057 4.76254
upperneck 42.4491 6.85821 -9.04801
head 19.1616 2.37025 -3.90623
rclavicle 2.88238e-015 2.78299e-015
rhumerus -36.2453 33.8679 -96.6264
rradius 91.4553
rwrist -17.7381
rhand -10.5464 21.4888
rfingers 7.12502
rthumb 15.4574 -7.91316
lclavicle 2.88238e-015 2.78299e-015
lhumerus -34.5209 -37.1437 98.6334
lradius 83.3572
lwrist 14.4929
lhand -9.96938 35.86
lfingers 7.12502
lthumb 16.0131 65.2182
rfemur -34.7263 -6.08551 23.7492
rtibia 45.4885
rfoot -8.74134 -8.50477
rtoes 2.85696
lfemur -15.5876 5.8943 -19.7658
ltibia 23.9364
lfoot -15.3807 -1.84936
ltoes 0.856269
92
root -0.119168 18.1005 -5.61177 10.4671 4.51015 -3.17575
lowerback 2.91915 1.81086 -4.57961
upperback 3.41783 2.33368 1.11135
thorax 1.65726 1.05872 3.67447
lowerneck -14.0249 2.64753 4.69177
upperneck 42.4713 6.76116 -8.89314
head 19.1653 2.33793 -3.83579
rclavicle 1.39149e-015 2.5842e-015
rhumerus -36.0676 33.8233 -96.5413
rradius 91.393
rwrist -17.9453
rhand -10.6408 21.4604
rfingers 7.12502
rthumb 15.3665 -7.9486
lclavicle 1.39149e-015 2.5842e-015
lhumerus -34.4024 -37.2909 98.5115
lradius 83.3156
lwrist 14.3755
lhand -9.70853 36.2691
lfingers 7.12502
lthumb 16.2643 65.607
rfemur -34.9255 -6.36866 23.7775
rtibia 44.5589
rfoot -8.80715 -8.54952
rtoes 2.99033
lfemur -15.6592 5.79164 -19.8659
ltibia 23.817
lfoot -15.4017 -1.90726
ltoes 1.06503
93
root -0.116945 18.1011 -5.60062 10.6897 4.82325 -3.19645
lowerback 3.09188 1.75217 -4.48192
upperback 3.35132 2.24783 1.10146
thorax 1.5036 1.02309 3.60421
lowerneck -14.0422 2.61004 4.71713
upperneck 42.4828 6.66317 -8.82466
head 19.1601 2.3119 -3.82612
rclavicle -1.25234e-014 5.76476e-015
rhumerus -35.959 33.6615 -96.4533
rradius 91.4225
rwrist -18.3129
rhand -10.3977 21.6435
rfingers 7.12502
rthumb 15.6007 -7.74733
lclavicle -1.25234e-014 5.76476e-015
lhumerus -34.3989 -37.4428 98.4657
lradius 83.2728
lwrist 14.3433
lhand -8.657 35.3118
lfingers 7.12502
lthumb 17.2766 64.5639
rfemur -35.2074 -6.84267 24.0076
rtibia 43.5866
rfoot -8.55695 -8.62359
rtoes 0.746082
lfemur -15.8759 5.55295 -19.8238
ltibia 23.7556
lfoot -15.4133 -1.93857
ltoes 0.463342
